<mxfile host="app.diagrams.net" agent="Mozilla/5.0 (Windows NT 10.0; Win64; x64) AppleWebKit/537.36 (KHTML, like Gecko) Chrome/137.0.0.0 Safari/537.36" version="27.1.4">
  <diagram name="Page-1" id="fArj9NiCsdaHj81AM4RP">
    <mxGraphModel dx="1042" dy="562" grid="1" gridSize="10" guides="1" tooltips="1" connect="1" arrows="1" fold="1" page="1" pageScale="1" pageWidth="827" pageHeight="1169" math="0" shadow="0">
      <root>
        <mxCell id="0" />
        <mxCell id="1" parent="0" />
        <mxCell id="lESlG-1TGw_HNT97u1AT-2" style="edgeStyle=orthogonalEdgeStyle;rounded=0;orthogonalLoop=1;jettySize=auto;html=1;exitX=0.5;exitY=1;exitDx=0;exitDy=0;" edge="1" parent="1" source="lESlG-1TGw_HNT97u1AT-1">
          <mxGeometry relative="1" as="geometry">
            <mxPoint x="425" y="180" as="targetPoint" />
          </mxGeometry>
        </mxCell>
        <mxCell id="lESlG-1TGw_HNT97u1AT-1" value="&lt;font style=&quot;font-size: 19px;&quot;&gt;Start&lt;/font&gt;" style="rounded=1;whiteSpace=wrap;html=1;fillColor=#dae8fc;strokeColor=#6c8ebf;" vertex="1" parent="1">
          <mxGeometry x="330" y="60" width="190" height="60" as="geometry" />
        </mxCell>
        <mxCell id="lESlG-1TGw_HNT97u1AT-5" style="edgeStyle=orthogonalEdgeStyle;rounded=0;orthogonalLoop=1;jettySize=auto;html=1;" edge="1" parent="1" source="lESlG-1TGw_HNT97u1AT-4" target="lESlG-1TGw_HNT97u1AT-6">
          <mxGeometry relative="1" as="geometry">
            <mxPoint x="425" y="300" as="targetPoint" />
          </mxGeometry>
        </mxCell>
        <mxCell id="lESlG-1TGw_HNT97u1AT-4" value="&lt;font style=&quot;font-size: 14px;&quot;&gt;print &quot;location Extractor&quot;&lt;/font&gt;" style="rounded=0;whiteSpace=wrap;html=1;fillColor=#f5f5f5;strokeColor=#666666;fontColor=#333333;" vertex="1" parent="1">
          <mxGeometry x="340" y="180" width="170" height="60" as="geometry" />
        </mxCell>
        <mxCell id="lESlG-1TGw_HNT97u1AT-7" style="edgeStyle=orthogonalEdgeStyle;rounded=0;orthogonalLoop=1;jettySize=auto;html=1;" edge="1" parent="1" source="lESlG-1TGw_HNT97u1AT-6" target="lESlG-1TGw_HNT97u1AT-8">
          <mxGeometry relative="1" as="geometry">
            <mxPoint x="425" y="400" as="targetPoint" />
          </mxGeometry>
        </mxCell>
        <mxCell id="lESlG-1TGw_HNT97u1AT-6" value="&lt;font style=&quot;font-size: 13px;&quot;&gt;create user for input&lt;/font&gt;" style="rounded=1;whiteSpace=wrap;html=1;fillColor=#dae8fc;strokeColor=#6c8ebf;" vertex="1" parent="1">
          <mxGeometry x="370" y="270" width="120" height="60" as="geometry" />
        </mxCell>
        <mxCell id="lESlG-1TGw_HNT97u1AT-9" style="edgeStyle=orthogonalEdgeStyle;rounded=0;orthogonalLoop=1;jettySize=auto;html=1;" edge="1" parent="1" source="lESlG-1TGw_HNT97u1AT-8" target="lESlG-1TGw_HNT97u1AT-10">
          <mxGeometry relative="1" as="geometry">
            <mxPoint x="425" y="500" as="targetPoint" />
          </mxGeometry>
        </mxCell>
        <mxCell id="lESlG-1TGw_HNT97u1AT-11" style="edgeStyle=orthogonalEdgeStyle;rounded=0;orthogonalLoop=1;jettySize=auto;html=1;" edge="1" parent="1" source="lESlG-1TGw_HNT97u1AT-8">
          <mxGeometry relative="1" as="geometry">
            <mxPoint x="620" y="480" as="targetPoint" />
          </mxGeometry>
        </mxCell>
        <mxCell id="lESlG-1TGw_HNT97u1AT-8" value="&lt;font style=&quot;font-size: 14px;&quot;&gt;Input = &quot;Exit?&quot;&lt;/font&gt;" style="rounded=0;whiteSpace=wrap;html=1;fillColor=#f5f5f5;strokeColor=#666666;fontColor=#333333;" vertex="1" parent="1">
          <mxGeometry x="365" y="370" width="120" height="60" as="geometry" />
        </mxCell>
        <mxCell id="lESlG-1TGw_HNT97u1AT-14" style="edgeStyle=orthogonalEdgeStyle;rounded=0;orthogonalLoop=1;jettySize=auto;html=1;" edge="1" parent="1" source="lESlG-1TGw_HNT97u1AT-10" target="lESlG-1TGw_HNT97u1AT-15">
          <mxGeometry relative="1" as="geometry">
            <mxPoint x="425" y="600" as="targetPoint" />
          </mxGeometry>
        </mxCell>
        <mxCell id="lESlG-1TGw_HNT97u1AT-10" value="&lt;font style=&quot;font-size: 14px;&quot;&gt;Exit&lt;/font&gt;" style="rounded=0;whiteSpace=wrap;html=1;fillColor=#dae8fc;strokeColor=#6c8ebf;" vertex="1" parent="1">
          <mxGeometry x="365" y="470" width="120" height="60" as="geometry" />
        </mxCell>
        <mxCell id="lESlG-1TGw_HNT97u1AT-13" value="&lt;font style=&quot;font-size: 14px;&quot;&gt;Use SpaCy model to analyse the location from sentences&lt;/font&gt;" style="rounded=1;whiteSpace=wrap;html=1;fillColor=#f8cecc;strokeColor=#b85450;" vertex="1" parent="1">
          <mxGeometry x="560" y="480" width="170" height="60" as="geometry" />
        </mxCell>
        <mxCell id="lESlG-1TGw_HNT97u1AT-16" style="edgeStyle=orthogonalEdgeStyle;rounded=0;orthogonalLoop=1;jettySize=auto;html=1;" edge="1" parent="1" source="lESlG-1TGw_HNT97u1AT-15" target="lESlG-1TGw_HNT97u1AT-17">
          <mxGeometry relative="1" as="geometry">
            <mxPoint x="425" y="700" as="targetPoint" />
          </mxGeometry>
        </mxCell>
        <mxCell id="lESlG-1TGw_HNT97u1AT-15" value="&lt;font style=&quot;font-size: 14px;&quot;&gt;Call Location Extraction&lt;/font&gt;" style="rounded=0;whiteSpace=wrap;html=1;fillColor=#f5f5f5;fontColor=#333333;strokeColor=#666666;" vertex="1" parent="1">
          <mxGeometry x="365" y="570" width="120" height="60" as="geometry" />
        </mxCell>
        <mxCell id="lESlG-1TGw_HNT97u1AT-18" style="edgeStyle=orthogonalEdgeStyle;rounded=0;orthogonalLoop=1;jettySize=auto;html=1;" edge="1" parent="1" source="lESlG-1TGw_HNT97u1AT-17" target="lESlG-1TGw_HNT97u1AT-19">
          <mxGeometry relative="1" as="geometry">
            <mxPoint x="425" y="800" as="targetPoint" />
            <Array as="points">
              <mxPoint x="425" y="790" />
              <mxPoint x="425" y="790" />
            </Array>
          </mxGeometry>
        </mxCell>
        <mxCell id="lESlG-1TGw_HNT97u1AT-17" value="&lt;font style=&quot;font-size: 14px;&quot;&gt;Extract GPE,LOC,FAC Entites&lt;/font&gt;" style="rounded=0;whiteSpace=wrap;html=1;fillColor=#dae8fc;strokeColor=#6c8ebf;" vertex="1" parent="1">
          <mxGeometry x="365" y="670" width="120" height="60" as="geometry" />
        </mxCell>
        <mxCell id="lESlG-1TGw_HNT97u1AT-22" style="edgeStyle=orthogonalEdgeStyle;rounded=0;orthogonalLoop=1;jettySize=auto;html=1;exitX=0.25;exitY=1;exitDx=0;exitDy=0;" edge="1" parent="1" source="lESlG-1TGw_HNT97u1AT-19" target="lESlG-1TGw_HNT97u1AT-23">
          <mxGeometry relative="1" as="geometry">
            <mxPoint x="399" y="910" as="targetPoint" />
          </mxGeometry>
        </mxCell>
        <mxCell id="lESlG-1TGw_HNT97u1AT-25" value="" style="edgeStyle=orthogonalEdgeStyle;rounded=0;orthogonalLoop=1;jettySize=auto;html=1;" edge="1" parent="1" source="lESlG-1TGw_HNT97u1AT-19" target="lESlG-1TGw_HNT97u1AT-24">
          <mxGeometry relative="1" as="geometry" />
        </mxCell>
        <mxCell id="lESlG-1TGw_HNT97u1AT-19" value="&lt;font style=&quot;font-size: 14px;&quot;&gt;Any Locations Found&amp;nbsp;&lt;/font&gt;" style="rounded=1;whiteSpace=wrap;html=1;fillColor=#f5f5f5;fontColor=#333333;strokeColor=#666666;" vertex="1" parent="1">
          <mxGeometry x="370" y="780" width="115" height="50" as="geometry" />
        </mxCell>
        <mxCell id="lESlG-1TGw_HNT97u1AT-23" value="&lt;font style=&quot;font-size: 14px;&quot;&gt;Print Locations&amp;nbsp;&lt;/font&gt;" style="rounded=1;whiteSpace=wrap;html=1;fillColor=#f8cecc;strokeColor=#b85450;" vertex="1" parent="1">
          <mxGeometry x="290" y="920" width="120" height="60" as="geometry" />
        </mxCell>
        <mxCell id="lESlG-1TGw_HNT97u1AT-24" value="&lt;font style=&quot;font-size: 14px;&quot;&gt;Print No Locations&amp;nbsp;&lt;/font&gt;" style="rounded=1;whiteSpace=wrap;html=1;fillColor=#dae8fc;strokeColor=#6c8ebf;" vertex="1" parent="1">
          <mxGeometry x="420" y="920" width="120" height="60" as="geometry" />
        </mxCell>
        <mxCell id="lESlG-1TGw_HNT97u1AT-26" value="Yes&amp;nbsp;" style="text;html=1;align=center;verticalAlign=middle;resizable=0;points=[];autosize=1;strokeColor=none;fillColor=none;" vertex="1" parent="1">
          <mxGeometry x="355" y="840" width="50" height="30" as="geometry" />
        </mxCell>
        <mxCell id="lESlG-1TGw_HNT97u1AT-27" value="No" style="text;html=1;align=center;verticalAlign=middle;resizable=0;points=[];autosize=1;strokeColor=none;fillColor=none;" vertex="1" parent="1">
          <mxGeometry x="440" y="838" width="40" height="30" as="geometry" />
        </mxCell>
        <mxCell id="lESlG-1TGw_HNT97u1AT-28" value="yes" style="text;html=1;align=center;verticalAlign=middle;resizable=0;points=[];autosize=1;strokeColor=none;fillColor=none;" vertex="1" parent="1">
          <mxGeometry x="440" y="428" width="40" height="30" as="geometry" />
        </mxCell>
        <mxCell id="lESlG-1TGw_HNT97u1AT-29" value="No" style="text;html=1;align=center;verticalAlign=middle;resizable=0;points=[];autosize=1;strokeColor=none;fillColor=none;" vertex="1" parent="1">
          <mxGeometry x="540" y="368" width="40" height="30" as="geometry" />
        </mxCell>
      </root>
    </mxGraphModel>
  </diagram>
</mxfile>
